<svg xmlns="http://www.w3.org/2000/svg" width="17" height="23" viewBox="0 0 17 23">
  <metadata><?xpacket begin="﻿" id="W5M0MpCehiHzreSzNTczkc9d"?>
<x:xmpmeta xmlns:x="adobe:ns:meta/" x:xmptk="Adobe XMP Core 5.6-c138 79.159824, 2016/09/14-01:09:01        ">
   <rdf:RDF xmlns:rdf="http://www.w3.org/1999/02/22-rdf-syntax-ns#">
      <rdf:Description rdf:about=""/>
   </rdf:RDF>
</x:xmpmeta>
                                                                                                    
                                                                                                    
                                                                                                    
                                                                                                    
                                                                                                    
                                                                                                    
                                                                                                    
                                                                                                    
                                                                                                    
                                                                                                    
                                                                                                    
                                                                                                    
                                                                                                    
                                                                                                    
                                                                                                    
                                                                                                    
                                                                                                    
                                                                                                    
                                                                                                    
                                                                                                    
                           
<?xpacket end="w"?></metadata>
<defs>
    <style>
      .cls-1 {
        fill: #4e89f7;
        fill-rule: evenodd;
      }
    </style>
  </defs>
  <path id="Shape_24_copy" data-name="Shape 24 copy" class="cls-1" d="M8.271,1.883H8.734a8.255,8.255,0,0,1,8.256,8.254v7.494a1.876,1.876,0,0,1-1.876,1.875H1.891A1.876,1.876,0,0,1,.015,17.632V10.138A8.255,8.255,0,0,1,8.271,1.883ZM8.593,23H8.412A3.232,3.232,0,0,1,5.18,19.773V19.507h6.646v0.265A3.232,3.232,0,0,1,8.593,23ZM8.683,0.025h0a0.723,0.723,0,0,0-.723.722V2.353H9.406V0.748A0.723,0.723,0,0,0,8.683.025Z"/>
</svg>
