<svg xmlns="http://www.w3.org/2000/svg" width="29" height="23" viewBox="0 0 29 23">
  <metadata><?xpacket begin="﻿" id="W5M0MpCehiHzreSzNTczkc9d"?>
<x:xmpmeta xmlns:x="adobe:ns:meta/" x:xmptk="Adobe XMP Core 5.6-c138 79.159824, 2016/09/14-01:09:01        ">
   <rdf:RDF xmlns:rdf="http://www.w3.org/1999/02/22-rdf-syntax-ns#">
      <rdf:Description rdf:about=""/>
   </rdf:RDF>
</x:xmpmeta>
                                                                                                    
                                                                                                    
                                                                                                    
                                                                                                    
                                                                                                    
                                                                                                    
                                                                                                    
                                                                                                    
                                                                                                    
                                                                                                    
                                                                                                    
                                                                                                    
                                                                                                    
                                                                                                    
                                                                                                    
                                                                                                    
                                                                                                    
                                                                                                    
                                                                                                    
                                                                                                    
                           
<?xpacket end="w"?></metadata>
<defs>
    <style>
      .cls-1 {
        fill: #4e89f7;
        fill-rule: evenodd;
      }
    </style>
  </defs>
  <path id="Shape_23_copy_2" data-name="Shape 23 copy 2" class="cls-1" d="M5.546,22.084H1.13A1.131,1.131,0,0,1,0,20.951V16.52A1.131,1.131,0,0,1,1.13,15.387H5.546A1.131,1.131,0,0,1,6.675,16.52v4.43A1.131,1.131,0,0,1,5.546,22.084Zm11.052,0H12.182a1.131,1.131,0,0,1-1.129-1.133V16.52a1.131,1.131,0,0,1,1.129-1.133H16.6a1.131,1.131,0,0,1,1.129,1.133v4.43A1.131,1.131,0,0,1,16.6,22.084Zm0-15.311H12.182A1.131,1.131,0,0,1,11.053,5.64V1.209A1.131,1.131,0,0,1,12.182.076H16.6a1.131,1.131,0,0,1,1.129,1.133V5.64A1.131,1.131,0,0,1,16.6,6.773ZM27.873,22.084H23.458a1.132,1.132,0,0,1-1.13-1.133V16.52a1.132,1.132,0,0,1,1.13-1.133h4.416A1.132,1.132,0,0,1,29,16.52v4.43A1.132,1.132,0,0,1,27.873,22.084Zm-1.724-6.7H25.181V12.239a0.647,0.647,0,0,0-.645-0.648H4.467a0.647,0.647,0,0,0-.645.648v3.148H2.854V12.239A1.618,1.618,0,0,1,4.467,10.62H24.536a1.618,1.618,0,0,1,1.614,1.619v3.148Zm-11.276,0H13.906V6.773h0.968v8.614Z"/>
</svg>
