<svg xmlns="http://www.w3.org/2000/svg" width="29" height="22" viewBox="0 0 29 22">
  <metadata><?xpacket begin="﻿" id="W5M0MpCehiHzreSzNTczkc9d"?>
<x:xmpmeta xmlns:x="adobe:ns:meta/" x:xmptk="Adobe XMP Core 5.6-c138 79.159824, 2016/09/14-01:09:01        ">
   <rdf:RDF xmlns:rdf="http://www.w3.org/1999/02/22-rdf-syntax-ns#">
      <rdf:Description rdf:about=""/>
   </rdf:RDF>
</x:xmpmeta>
                                                                                                    
                                                                                                    
                                                                                                    
                                                                                                    
                                                                                                    
                                                                                                    
                                                                                                    
                                                                                                    
                                                                                                    
                                                                                                    
                                                                                                    
                                                                                                    
                                                                                                    
                                                                                                    
                                                                                                    
                                                                                                    
                                                                                                    
                                                                                                    
                                                                                                    
                                                                                                    
                           
<?xpacket end="w"?></metadata>
<defs>
    <style>
      .cls-1 {
        fill: #fff;
        fill-rule: evenodd;
      }
    </style>
  </defs>
  <path class="cls-1" d="M5.545,21.991H1.13A1.131,1.131,0,0,1,0,20.857V16.428A1.131,1.131,0,0,1,1.13,15.3H5.545a1.131,1.131,0,0,1,1.129,1.133v4.429A1.131,1.131,0,0,1,5.545,21.991Zm11.05,0H12.18a1.131,1.131,0,0,1-1.129-1.133V16.428A1.131,1.131,0,0,1,12.18,15.3h4.415a1.131,1.131,0,0,1,1.129,1.133v4.429A1.131,1.131,0,0,1,16.595,21.991Zm0-15.307H12.18A1.131,1.131,0,0,1,11.051,5.55V1.121A1.131,1.131,0,0,1,12.18-.012h4.415a1.131,1.131,0,0,1,1.129,1.133V5.55A1.131,1.131,0,0,1,16.595,6.683ZM27.868,21.991H23.453a1.131,1.131,0,0,1-1.129-1.133V16.428A1.131,1.131,0,0,1,23.453,15.3h4.415A1.131,1.131,0,0,1,29,16.428v4.429A1.131,1.131,0,0,1,27.868,21.991Zm-1.723-6.7H25.177V12.148a0.647,0.647,0,0,0-.645-0.647H4.467a0.647,0.647,0,0,0-.645.647V15.3H2.854V12.148a1.618,1.618,0,0,1,1.613-1.619H24.532a1.618,1.618,0,0,1,1.613,1.619V15.3Zm-11.274,0H13.9V6.683h0.968V15.3Z"/>
</svg>
