<svg xmlns="http://www.w3.org/2000/svg" width="24" height="23" viewBox="0 0 24 23">
  <metadata><?xpacket begin="﻿" id="W5M0MpCehiHzreSzNTczkc9d"?>
<x:xmpmeta xmlns:x="adobe:ns:meta/" x:xmptk="Adobe XMP Core 5.6-c138 79.159824, 2016/09/14-01:09:01        ">
   <rdf:RDF xmlns:rdf="http://www.w3.org/1999/02/22-rdf-syntax-ns#">
      <rdf:Description rdf:about=""/>
   </rdf:RDF>
</x:xmpmeta>
                                                                                                    
                                                                                                    
                                                                                                    
                                                                                                    
                                                                                                    
                                                                                                    
                                                                                                    
                                                                                                    
                                                                                                    
                                                                                                    
                                                                                                    
                                                                                                    
                                                                                                    
                                                                                                    
                                                                                                    
                                                                                                    
                                                                                                    
                                                                                                    
                                                                                                    
                                                                                                    
                           
<?xpacket end="w"?></metadata>
<defs>
    <style>
      .cls-1 {
        fill: #fff;
        fill-rule: evenodd;
      }
    </style>
  </defs>
  <path class="cls-1" d="M12.928-.009A11.309,11.309,0,0,0,1.859,11.5c0,0.151.005,0.3,0.011,0.451H3.089c-0.006-.15-0.011-0.3-0.011-0.451a10.064,10.064,0,0,1,9.85-10.244A10.064,10.064,0,0,1,22.779,11.5a10.064,10.064,0,0,1-9.851,10.244,9.772,9.772,0,0,1-8.343-4.808l-1.217.354a11,11,0,0,0,9.561,5.721A11.309,11.309,0,0,0,24,11.5,11.309,11.309,0,0,0,12.928-.009ZM0,9.282l2.853,4.173L5.04,9.282H0Zm12.93-6.7C8.955,2.474,6.493,5.171,5.04,7.951H6.785L4.461,12.87a8.685,8.685,0,0,0,8.467,7.553A8.755,8.755,0,0,0,21.507,11.5,8.838,8.838,0,0,0,12.928,2.58Zm4.524,9.555H12.319V5.619h1.219v5.249h3.914v1.267Z"/>
</svg>
