<svg xmlns="http://www.w3.org/2000/svg" width="16" height="16" viewBox="0 0 16 16">
  <metadata><?xpacket begin="﻿" id="W5M0MpCehiHzreSzNTczkc9d"?>
<x:xmpmeta xmlns:x="adobe:ns:meta/" x:xmptk="Adobe XMP Core 5.6-c138 79.159824, 2016/09/14-01:09:01        ">
   <rdf:RDF xmlns:rdf="http://www.w3.org/1999/02/22-rdf-syntax-ns#">
      <rdf:Description rdf:about=""/>
   </rdf:RDF>
</x:xmpmeta>
                                                                                                    
                                                                                                    
                                                                                                    
                                                                                                    
                                                                                                    
                                                                                                    
                                                                                                    
                                                                                                    
                                                                                                    
                                                                                                    
                                                                                                    
                                                                                                    
                                                                                                    
                                                                                                    
                                                                                                    
                                                                                                    
                                                                                                    
                                                                                                    
                                                                                                    
                                                                                                    
                           
<?xpacket end="w"?></metadata>
<defs>
    <style>
      .cls-1 {
        fill: #4c4c4c;
        fill-rule: evenodd;
        opacity: 0.5;
      }
    </style>
  </defs>
  <path class="cls-1" d="M2.331,4.427A1.814,1.814,0,1,1,4.15,2.613,1.818,1.818,0,0,1,2.331,4.427Zm0-2.927A1.113,1.113,0,1,0,3.447,2.613,1.116,1.116,0,0,0,2.331,1.5Zm0,8.635A1.814,1.814,0,1,1,4.15,8.321,1.818,1.818,0,0,1,2.331,10.135Zm0-2.927A1.113,1.113,0,1,0,3.447,8.321,1.116,1.116,0,0,0,2.331,7.208Zm0,8.786A1.814,1.814,0,1,1,4.15,14.181,1.818,1.818,0,0,1,2.331,15.995Zm0-2.927a1.113,1.113,0,1,0,1.116,1.113A1.116,1.116,0,0,0,2.331,13.068ZM14.637,2.613H5.863a0.433,0.433,0,0,1-.434-0.433V2.053a0.433,0.433,0,0,1,.434-0.433h8.774a0.433,0.433,0,0,1,.434.433V2.181A0.433,0.433,0,0,1,14.637,2.613Zm0,5.885H5.863a0.433,0.433,0,0,1-.434-0.433V7.939a0.433,0.433,0,0,1,.434-0.433h8.774a0.433,0.433,0,0,1,.434.433V8.066A0.433,0.433,0,0,1,14.637,8.5Zm-2.525,6.179H5.863a0.433,0.433,0,0,1-.434-0.433V14.117a0.433,0.433,0,0,1,.434-0.433h6.249a0.433,0.433,0,0,1,.434.433v0.127A0.433,0.433,0,0,1,12.111,14.677Z"/>
</svg>
