<svg xmlns="http://www.w3.org/2000/svg" width="22" height="24" viewBox="0 0 22 24">
  <metadata><?xpacket begin="﻿" id="W5M0MpCehiHzreSzNTczkc9d"?>
<x:xmpmeta xmlns:x="adobe:ns:meta/" x:xmptk="Adobe XMP Core 5.6-c138 79.159824, 2016/09/14-01:09:01        ">
   <rdf:RDF xmlns:rdf="http://www.w3.org/1999/02/22-rdf-syntax-ns#">
      <rdf:Description rdf:about=""/>
   </rdf:RDF>
</x:xmpmeta>
                                                                                                    
                                                                                                    
                                                                                                    
                                                                                                    
                                                                                                    
                                                                                                    
                                                                                                    
                                                                                                    
                                                                                                    
                                                                                                    
                                                                                                    
                                                                                                    
                                                                                                    
                                                                                                    
                                                                                                    
                                                                                                    
                                                                                                    
                                                                                                    
                                                                                                    
                                                                                                    
                           
<?xpacket end="w"?></metadata>
<defs>
    <style>
      .cls-1 {
        fill: #8a8a8a;
        fill-rule: evenodd;
      }
    </style>
  </defs>
  <path class="cls-1" d="M11.019,10.682h0a0.6,0.6,0,0,1-.6-0.6V0.6a0.6,0.6,0,0,1,.6-0.6h0a0.6,0.6,0,0,1,.6.6v9.474A0.6,0.6,0,0,1,11.019,10.682ZM13.67,2.848h0a0.61,0.61,0,0,0,.418.576A9.765,9.765,0,0,1,12.119,22.33,9.747,9.747,0,0,1,8.008,3.4a0.608,0.608,0,0,0,.421-0.575h0a0.6,0.6,0,0,0-.785-0.577,10.973,10.973,0,0,0,2.64,21.326A10.963,10.963,0,0,0,14.456,2.271,0.6,0.6,0,0,0,13.67,2.848Z"/>
</svg>
