<svg xmlns="http://www.w3.org/2000/svg" width="20" height="20" viewBox="0 0 20 20">
  <metadata><?xpacket begin="﻿" id="W5M0MpCehiHzreSzNTczkc9d"?>
<x:xmpmeta xmlns:x="adobe:ns:meta/" x:xmptk="Adobe XMP Core 5.6-c138 79.159824, 2016/09/14-01:09:01        ">
   <rdf:RDF xmlns:rdf="http://www.w3.org/1999/02/22-rdf-syntax-ns#">
      <rdf:Description rdf:about=""/>
   </rdf:RDF>
</x:xmpmeta>
                                                                                                    
                                                                                                    
                                                                                                    
                                                                                                    
                                                                                                    
                                                                                                    
                                                                                                    
                                                                                                    
                                                                                                    
                                                                                                    
                                                                                                    
                                                                                                    
                                                                                                    
                                                                                                    
                                                                                                    
                                                                                                    
                                                                                                    
                                                                                                    
                                                                                                    
                                                                                                    
                           
<?xpacket end="w"?></metadata>
<defs>
    <style>
      .cls-1 {
        fill: #fff;
        fill-rule: evenodd;
      }
    </style>
  </defs>
  <path class="cls-1" d="M0.819,7.739A0.821,0.821,0,0,1,0,6.913V0.827A0.821,0.821,0,0,1,.819,0a0.821,0.821,0,0,1,.816.826V6.913A0.821,0.821,0,0,1,.819,7.739Zm6.33-6.086H0.962A0.821,0.821,0,0,1,.146.827,0.821,0.821,0,0,1,.962,0H7.149a0.821,0.821,0,0,1,.816.826A0.821,0.821,0,0,1,7.149,1.653ZM6.976,7.739A0.809,0.809,0,0,1,6.4,7.5L0.385,1.411a0.833,0.833,0,0,1,0-1.168,0.809,0.809,0,0,1,1.154,0L7.553,6.329a0.833,0.833,0,0,1,0,1.168A0.809,0.809,0,0,1,6.976,7.739Zm12.2,0a0.821,0.821,0,0,1-.816-0.826V0.827A0.816,0.816,0,1,1,20,.827V6.913A0.821,0.821,0,0,1,19.18,7.739ZM19.037,1.653H13.023A0.821,0.821,0,0,1,12.206.827,0.821,0.821,0,0,1,13.023,0h6.015a0.821,0.821,0,0,1,.816.826A0.821,0.821,0,0,1,19.037,1.653ZM13.023,7.739A0.809,0.809,0,0,1,12.446,7.5a0.833,0.833,0,0,1,0-1.168L18.46,0.243a0.809,0.809,0,0,1,1.154,0,0.833,0.833,0,0,1,0,1.168L13.6,7.5A0.809,0.809,0,0,1,13.023,7.739ZM19.18,20a0.821,0.821,0,0,1-.816-0.826V12.918a0.816,0.816,0,1,1,1.633,0v6.261A0.821,0.821,0,0,1,19.18,20Zm-0.142,0h-6.1a0.826,0.826,0,0,1,0-1.652h6.1A0.826,0.826,0,0,1,19.037,20Zm0,0a0.809,0.809,0,0,1-.577-0.242l-6.1-6.173a0.833,0.833,0,0,1,0-1.168,0.809,0.809,0,0,1,1.154,0l6.1,6.173a0.833,0.833,0,0,1,0,1.168A0.809,0.809,0,0,1,19.037,20ZM0.819,20A0.821,0.821,0,0,1,0,19.178V12.918a0.821,0.821,0,0,1,.816-0.826,0.821,0.821,0,0,1,.816.826v6.261A0.821,0.821,0,0,1,.819,20Zm6.33,0H0.962a0.826,0.826,0,0,1,0-1.652H7.149A0.826,0.826,0,0,1,7.149,20ZM0.962,20a0.809,0.809,0,0,1-.577-0.242,0.833,0.833,0,0,1,0-1.168l6.187-6.261a0.809,0.809,0,0,1,1.154,0,0.833,0.833,0,0,1,0,1.168L1.539,19.762A0.809,0.809,0,0,1,.962,20Z"/>
</svg>
