<svg xmlns="http://www.w3.org/2000/svg" width="25" height="21" viewBox="0 0 25 21">
  <metadata><?xpacket begin="﻿" id="W5M0MpCehiHzreSzNTczkc9d"?>
<x:xmpmeta xmlns:x="adobe:ns:meta/" x:xmptk="Adobe XMP Core 5.6-c138 79.159824, 2016/09/14-01:09:01        ">
   <rdf:RDF xmlns:rdf="http://www.w3.org/1999/02/22-rdf-syntax-ns#">
      <rdf:Description rdf:about=""/>
   </rdf:RDF>
</x:xmpmeta>
                                                                                                    
                                                                                                    
                                                                                                    
                                                                                                    
                                                                                                    
                                                                                                    
                                                                                                    
                                                                                                    
                                                                                                    
                                                                                                    
                                                                                                    
                                                                                                    
                                                                                                    
                                                                                                    
                                                                                                    
                                                                                                    
                                                                                                    
                                                                                                    
                                                                                                    
                                                                                                    
                           
<?xpacket end="w"?></metadata>
<defs>
    <style>
      .cls-1 {
        fill: #fff;
        fill-rule: evenodd;
      }
    </style>
  </defs>
  <path class="cls-1" d="M13.756,20.58H11.347a1.254,1.254,0,0,1-1.276-1.231V1.219A1.254,1.254,0,0,1,11.347-.011h2.409a1.254,1.254,0,0,1,1.276,1.231v18.13A1.254,1.254,0,0,1,13.756,20.58ZM3.7,20.58H1.288A1.254,1.254,0,0,1,.012,19.349v-7.99a1.254,1.254,0,0,1,1.276-1.231H3.7a1.254,1.254,0,0,1,1.276,1.231v7.99A1.254,1.254,0,0,1,3.7,20.58Zm20.03,0.414H21.317a1.254,1.254,0,0,1-1.276-1.231V7.015a1.254,1.254,0,0,1,1.276-1.231h2.409A1.254,1.254,0,0,1,25,7.015V19.763A1.254,1.254,0,0,1,23.727,20.994Z"/>
</svg>
