<svg xmlns="http://www.w3.org/2000/svg" width="25" height="21" viewBox="0 0 25 21">
  <metadata><?xpacket begin="﻿" id="W5M0MpCehiHzreSzNTczkc9d"?>
<x:xmpmeta xmlns:x="adobe:ns:meta/" x:xmptk="Adobe XMP Core 5.6-c138 79.159824, 2016/09/14-01:09:01        ">
   <rdf:RDF xmlns:rdf="http://www.w3.org/1999/02/22-rdf-syntax-ns#">
      <rdf:Description rdf:about=""/>
   </rdf:RDF>
</x:xmpmeta>
                                                                                                    
                                                                                                    
                                                                                                    
                                                                                                    
                                                                                                    
                                                                                                    
                                                                                                    
                                                                                                    
                                                                                                    
                                                                                                    
                                                                                                    
                                                                                                    
                                                                                                    
                                                                                                    
                                                                                                    
                                                                                                    
                                                                                                    
                                                                                                    
                                                                                                    
                                                                                                    
                           
<?xpacket end="w"?></metadata>
<defs>
    <style>
      .cls-1 {
        fill: #4e89f7;
        fill-rule: evenodd;
      }
    </style>
  </defs>
  <path id="Shape_20_copy" data-name="Shape 20 copy" class="cls-1" d="M13.759,20.585H11.35a1.254,1.254,0,0,1-1.276-1.231V1.22A1.254,1.254,0,0,1,11.35-.011h2.409A1.254,1.254,0,0,1,15.035,1.22V19.354A1.254,1.254,0,0,1,13.759,20.585Zm-10.061,0H1.288A1.254,1.254,0,0,1,.012,19.354V11.362a1.254,1.254,0,0,1,1.276-1.231H3.7a1.254,1.254,0,0,1,1.276,1.231v7.992A1.254,1.254,0,0,1,3.7,20.585ZM23.731,21h-2.41a1.254,1.254,0,0,1-1.276-1.231V7.017a1.254,1.254,0,0,1,1.276-1.231h2.41a1.254,1.254,0,0,1,1.276,1.231V19.768A1.254,1.254,0,0,1,23.731,21Z"/>
</svg>
