<svg xmlns="http://www.w3.org/2000/svg" width="18" height="24" viewBox="0 0 18 24">
  <metadata><?xpacket begin="﻿" id="W5M0MpCehiHzreSzNTczkc9d"?>
<x:xmpmeta xmlns:x="adobe:ns:meta/" x:xmptk="Adobe XMP Core 5.6-c138 79.159824, 2016/09/14-01:09:01        ">
   <rdf:RDF xmlns:rdf="http://www.w3.org/1999/02/22-rdf-syntax-ns#">
      <rdf:Description rdf:about=""/>
   </rdf:RDF>
</x:xmpmeta>
                                                                                                    
                                                                                                    
                                                                                                    
                                                                                                    
                                                                                                    
                                                                                                    
                                                                                                    
                                                                                                    
                                                                                                    
                                                                                                    
                                                                                                    
                                                                                                    
                                                                                                    
                                                                                                    
                                                                                                    
                                                                                                    
                                                                                                    
                                                                                                    
                                                                                                    
                                                                                                    
                           
<?xpacket end="w"?></metadata>
<defs>
    <style>
      .cls-1 {
        fill: #868686;
        fill-rule: evenodd;
      }
    </style>
  </defs>
  <path class="cls-1" d="M9.883,2.177V0.691a0.711,0.711,0,0,0-1.423,0V2.159A8.731,8.731,0,0,0-.008,10.83v7.3A2.485,2.485,0,0,0,2.487,20.6H5.115a3.807,3.807,0,0,0,3.791,3.408H9.084a3.807,3.807,0,0,0,3.79-3.408h2.965a0.642,0.642,0,1,0,0-1.284H2.487a1.193,1.193,0,0,1-1.2-1.186v-7.3a7.449,7.449,0,0,1,7.477-7.4H9.222a7.449,7.449,0,0,1,7.477,7.4v4.824a0.649,0.649,0,0,0,1.3,0V10.83A8.729,8.729,0,0,0,9.883,2.177Zm-0.8,20.55H8.905a2.529,2.529,0,0,1-2.5-2.12h5.182A2.529,2.529,0,0,1,9.084,22.727Z"/>
</svg>
