<svg xmlns="http://www.w3.org/2000/svg" width="28" height="25" viewBox="0 0 28 25">
  <metadata><?xpacket begin="﻿" id="W5M0MpCehiHzreSzNTczkc9d"?>
<x:xmpmeta xmlns:x="adobe:ns:meta/" x:xmptk="Adobe XMP Core 5.6-c138 79.159824, 2016/09/14-01:09:01        ">
   <rdf:RDF xmlns:rdf="http://www.w3.org/1999/02/22-rdf-syntax-ns#">
      <rdf:Description rdf:about=""/>
   </rdf:RDF>
</x:xmpmeta>
                                                                                                    
                                                                                                    
                                                                                                    
                                                                                                    
                                                                                                    
                                                                                                    
                                                                                                    
                                                                                                    
                                                                                                    
                                                                                                    
                                                                                                    
                                                                                                    
                                                                                                    
                                                                                                    
                                                                                                    
                                                                                                    
                                                                                                    
                                                                                                    
                                                                                                    
                                                                                                    
                           
<?xpacket end="w"?></metadata>
<defs>
    <style>
      .cls-1 {
        fill: #f5f7fa;
        fill-rule: evenodd;
      }
    </style>
  </defs>
  <path class="cls-1" d="M6.211,3.242H0V0.522A0.54,0.54,0,0,1,.547-0.006H5.663a0.54,0.54,0,0,1,.548.527V3.242ZM18.316-1.9m9.136,16.436H24.94V9.748a0.478,0.478,0,0,0-.287-0.434L18.111,6.377a0.5,0.5,0,0,0-.709.434v7.729H15.964V9.814a0.478,0.478,0,0,0-.287-0.434L9.135,6.443a0.5,0.5,0,0,0-.709.434v7.664H7.9L6.211,4.082H0V24.473A0.54,0.54,0,0,0,.547,25h1.6V15.9H7.353V25h20.1A0.54,0.54,0,0,0,28,24.473v-9.4A0.54,0.54,0,0,0,27.452,14.541ZM12.241,21.484H9.683V19.023h2.558v2.461Zm0-3.076H9.683V15.947h2.558v2.461Zm3.289,3.076H12.972V19.023H15.53v2.461Zm0-3.076H12.972V15.947H15.53v2.461Zm3.289,3.076H16.261V19.023h2.558v2.461Zm0-3.076H16.261V15.947h2.558v2.461Zm3.289,3.076H19.55V19.023h2.558v2.461Zm0-3.076H19.55V15.947h2.558v2.461ZM25.4,21.484H22.839V19.023H25.4v2.461Zm0-3.076H22.839V15.947H25.4v2.461Z"/>
</svg>
