<svg xmlns="http://www.w3.org/2000/svg" width="24" height="22" viewBox="0 0 24 22">
  <metadata><?xpacket begin="﻿" id="W5M0MpCehiHzreSzNTczkc9d"?>
<x:xmpmeta xmlns:x="adobe:ns:meta/" x:xmptk="Adobe XMP Core 5.6-c138 79.159824, 2016/09/14-01:09:01        ">
   <rdf:RDF xmlns:rdf="http://www.w3.org/1999/02/22-rdf-syntax-ns#">
      <rdf:Description rdf:about=""/>
   </rdf:RDF>
</x:xmpmeta>
                                                                                                    
                                                                                                    
                                                                                                    
                                                                                                    
                                                                                                    
                                                                                                    
                                                                                                    
                                                                                                    
                                                                                                    
                                                                                                    
                                                                                                    
                                                                                                    
                                                                                                    
                                                                                                    
                                                                                                    
                                                                                                    
                                                                                                    
                                                                                                    
                                                                                                    
                                                                                                    
                           
<?xpacket end="w"?></metadata>
<defs>
    <style>
      .cls-1 {
        fill: #fff;
        fill-rule: evenodd;
      }
    </style>
  </defs>
  <path class="cls-1" d="M15.746,3.819a3.748,3.748,0,1,1-7.494,0A3.748,3.748,0,1,1,15.746,3.819ZM24,18.177a3.748,3.748,0,1,1-3.747-3.828A3.788,3.788,0,0,1,24,18.177Zm-16.5,0A3.788,3.788,0,0,1,3.747,22a3.829,3.829,0,0,1,0-7.656A3.788,3.788,0,0,1,7.494,18.177Zm13.371,0.217L11.675,4.035,12.324,3.6l9.19,14.358ZM4.082,18.377l-0.669-.4L11.665,3.618l0.668,0.4Zm16.17,0.2H3.747V17.781h16.5v0.792Z"/>
</svg>
