<svg xmlns="http://www.w3.org/2000/svg" width="18" height="24" viewBox="0 0 18 24">
  <metadata><?xpacket begin="﻿" id="W5M0MpCehiHzreSzNTczkc9d"?>
<x:xmpmeta xmlns:x="adobe:ns:meta/" x:xmptk="Adobe XMP Core 5.6-c138 79.159824, 2016/09/14-01:09:01        ">
   <rdf:RDF xmlns:rdf="http://www.w3.org/1999/02/22-rdf-syntax-ns#">
      <rdf:Description rdf:about=""/>
   </rdf:RDF>
</x:xmpmeta>
                                                                                                    
                                                                                                    
                                                                                                    
                                                                                                    
                                                                                                    
                                                                                                    
                                                                                                    
                                                                                                    
                                                                                                    
                                                                                                    
                                                                                                    
                                                                                                    
                                                                                                    
                                                                                                    
                                                                                                    
                                                                                                    
                                                                                                    
                                                                                                    
                                                                                                    
                                                                                                    
                           
<?xpacket end="w"?></metadata>
<defs>
    <style>
      .cls-1 {
        fill: #fff;
        fill-rule: evenodd;
      }
    </style>
  </defs>
  <path class="cls-1" d="M9.148,2.795H9.611a8.253,8.253,0,0,1,8.255,8.252V18.54a1.875,1.875,0,0,1-1.875,1.875H2.768A1.875,1.875,0,0,1,.893,18.54V11.047A8.253,8.253,0,0,1,9.148,2.795ZM9.47,23.91H9.289A3.231,3.231,0,0,1,6.057,20.68V20.414H12.7V20.68A3.231,3.231,0,0,1,9.47,23.91ZM9.56,0.937h0a0.722,0.722,0,0,0-.723.722v1.6h1.445v-1.6A0.722,0.722,0,0,0,9.56.937Z"/>
</svg>
