<svg xmlns="http://www.w3.org/2000/svg" width="25" height="25" viewBox="0 0 25 25">
  <metadata><?xpacket begin="﻿" id="W5M0MpCehiHzreSzNTczkc9d"?>
<x:xmpmeta xmlns:x="adobe:ns:meta/" x:xmptk="Adobe XMP Core 5.6-c138 79.159824, 2016/09/14-01:09:01        ">
   <rdf:RDF xmlns:rdf="http://www.w3.org/1999/02/22-rdf-syntax-ns#">
      <rdf:Description rdf:about=""/>
   </rdf:RDF>
</x:xmpmeta>
                                                                                                    
                                                                                                    
                                                                                                    
                                                                                                    
                                                                                                    
                                                                                                    
                                                                                                    
                                                                                                    
                                                                                                    
                                                                                                    
                                                                                                    
                                                                                                    
                                                                                                    
                                                                                                    
                                                                                                    
                                                                                                    
                                                                                                    
                                                                                                    
                                                                                                    
                                                                                                    
                           
<?xpacket end="w"?></metadata>
<defs>
    <style>
      .cls-1 {
        fill: #fff;
        fill-rule: evenodd;
      }
    </style>
  </defs>
  <path class="cls-1" d="M11.482,0.019a12.517,12.517,0,1,0,13.5,13.494A12.567,12.567,0,0,0,11.482.019ZM11.794,3.38a0.655,0.655,0,0,1,1.31,0V4.89a0.655,0.655,0,0,1-1.31,0V3.38ZM4.871,13.149H3.361a0.655,0.655,0,1,1,0-1.31h1.51A0.655,0.655,0,0,1,4.871,13.149Zm1.79-5.61L5.593,6.47A0.655,0.655,0,0,1,6.52,5.544L7.587,6.612A0.655,0.655,0,0,1,6.661,7.538Zm10.7,10.447a0.652,0.652,0,0,1-.654.651c-3.023-.01-6.962-0.017-8.445-0.008a0.654,0.654,0,0,1-.007-1.307c1.247-.01,4.076-0.008,8.452.006a0.655,0.655,0,0,1,.654.656v0Zm-2.938-6.471a0.63,0.63,0,0,1-.11.073,2.093,2.093,0,0,1,.148,1.473,2.062,2.062,0,0,1-1.447,1.448,2.1,2.1,0,0,1-2.584-2.584,2.062,2.062,0,0,1,1.448-1.447,2.1,2.1,0,0,1,1.568.188,0.617,0.617,0,0,1,.051-0.078l4.863-4.862a0.655,0.655,0,0,1,.926.926Zm7.819,0.979a0.655,0.655,0,0,1-.655.655H20.08a0.655,0.655,0,0,1-.655-0.655h0a0.655,0.655,0,0,1,.655-0.655h1.51a0.655,0.655,0,0,1,.655.655h0Z"/>
</svg>
