<svg xmlns="http://www.w3.org/2000/svg" width="16" height="16" viewBox="0 0 16 16">
  <metadata><?xpacket begin="﻿" id="W5M0MpCehiHzreSzNTczkc9d"?>
<x:xmpmeta xmlns:x="adobe:ns:meta/" x:xmptk="Adobe XMP Core 5.6-c138 79.159824, 2016/09/14-01:09:01        ">
   <rdf:RDF xmlns:rdf="http://www.w3.org/1999/02/22-rdf-syntax-ns#">
      <rdf:Description rdf:about=""/>
   </rdf:RDF>
</x:xmpmeta>
                                                                                                    
                                                                                                    
                                                                                                    
                                                                                                    
                                                                                                    
                                                                                                    
                                                                                                    
                                                                                                    
                                                                                                    
                                                                                                    
                                                                                                    
                                                                                                    
                                                                                                    
                                                                                                    
                                                                                                    
                                                                                                    
                                                                                                    
                                                                                                    
                                                                                                    
                                                                                                    
                           
<?xpacket end="w"?></metadata>
<defs>
    <style>
      .cls-1 {
        fill: #898989;
        fill-rule: evenodd;
      }
    </style>
  </defs>
  <path class="cls-1" d="M5.97,15.206H0.858V10.083a0.4,0.4,0,0,0-.4-0.4,0.4,0.4,0,0,0-.4.4v5.4a0.372,0.372,0,0,0,.018.085c0,0.011-.007.02-0.007,0.032a0.391,0.391,0,0,0,.118.279A0.405,0.405,0,0,0,.467,16h5.5A0.4,0.4,0,1,0,5.97,15.206Zm-5.563-9a0.4,0.4,0,0,0,.4-0.4V0.789H6.03a0.4,0.4,0,0,0,.4-0.4A0.4,0.4,0,0,0,6.03,0h-5.5A0.391,0.391,0,0,0,.439.016C0.428,0.015.418,0.01,0.407,0.01A0.405,0.405,0,0,0,.122.126,0.39,0.39,0,0,0,0,.4v5.4A0.4,0.4,0,0,0,.407,6.2Zm9.627-5.412h5.112V5.912a0.4,0.4,0,0,0,.8,0v-5.4A0.375,0.375,0,0,0,15.933.426c0-.011.007-0.021,0.007-0.032A0.39,0.39,0,0,0,15.822.115,0.405,0.405,0,0,0,15.537,0h-5.5a0.4,0.4,0,0,0-.4.4A0.4,0.4,0,0,0,10.034.789Zm5.563,9a0.4,0.4,0,0,0-.4.4v5.017H9.974a0.4,0.4,0,1,0,0,.79h5.5a0.4,0.4,0,0,0,.087-0.017c0.011,0,.021.006,0.032,0.006a0.4,0.4,0,0,0,.285-0.116A0.39,0.39,0,0,0,16,15.59v-5.4A0.4,0.4,0,0,0,15.6,9.794Z"/>
</svg>
