<svg xmlns="http://www.w3.org/2000/svg" width="23" height="23" viewBox="0 0 23 23">
  <metadata><?xpacket begin="﻿" id="W5M0MpCehiHzreSzNTczkc9d"?>
<x:xmpmeta xmlns:x="adobe:ns:meta/" x:xmptk="Adobe XMP Core 5.6-c138 79.159824, 2016/09/14-01:09:01        ">
   <rdf:RDF xmlns:rdf="http://www.w3.org/1999/02/22-rdf-syntax-ns#">
      <rdf:Description rdf:about=""/>
   </rdf:RDF>
</x:xmpmeta>
                                                                                                    
                                                                                                    
                                                                                                    
                                                                                                    
                                                                                                    
                                                                                                    
                                                                                                    
                                                                                                    
                                                                                                    
                                                                                                    
                                                                                                    
                                                                                                    
                                                                                                    
                                                                                                    
                                                                                                    
                                                                                                    
                                                                                                    
                                                                                                    
                                                                                                    
                                                                                                    
                           
<?xpacket end="w"?></metadata>
<defs>
    <style>
      .cls-1 {
        fill: #868686;
        fill-rule: evenodd;
      }
    </style>
  </defs>
  <path class="cls-1" d="M11.591,15.495A4.072,4.072,0,0,1,7.42,11.538,4.072,4.072,0,0,1,11.591,7.58a4.073,4.073,0,0,1,4.172,3.957A4.073,4.073,0,0,1,11.591,15.495Zm0-6.639a2.759,2.759,0,0,0-2.826,2.682,2.759,2.759,0,0,0,2.826,2.682,2.76,2.76,0,0,0,2.827-2.682A2.76,2.76,0,0,0,11.591,8.855Zm1.517,14.139H9.884a1.494,1.494,0,0,1-1.469-1.126L8.072,20.359a10,10,0,0,1-2.83-1.564l-1.583.5a1.551,1.551,0,0,1-1.769-.624L0.244,16.041a1.384,1.384,0,0,1,.272-1.773l1.279-1.124a8.934,8.934,0,0,1,0-3.189L0.484,8.833a1.381,1.381,0,0,1-.292-1.77L1.8,4.414A1.552,1.552,0,0,1,3.567,3.77L5.241,4.281A9.994,9.994,0,0,1,8.049,2.724L8.415,1.115A1.494,1.494,0,0,1,9.884-.01h3.225a1.494,1.494,0,0,1,1.469,1.127l0.348,1.532A10.021,10.021,0,0,1,17.8,4.173l1.534-.487a1.55,1.55,0,0,1,1.769.624l1.645,2.633a1.381,1.381,0,0,1-.271,1.773l-1.133.995a8.89,8.89,0,0,1,.036,3.471l1.128,0.969a1.38,1.38,0,0,1,.292,1.77L21.186,18.57a1.551,1.551,0,0,1-1.761.644l-1.453-.444A10.178,10.178,0,0,1,14.9,20.433l-0.326,1.436A1.494,1.494,0,0,1,13.108,22.994ZM5.551,17.352L5.841,17.6a8.673,8.673,0,0,0,3.022,1.672l0.363,0.115,0.5,2.212a0.154,0.154,0,0,0,.154.119h3.225a0.154,0.154,0,0,0,.155-0.118l0.49-2.158,0.377-.11a8.769,8.769,0,0,0,3.237-1.752l0.288-.248L19.837,18a0.164,0.164,0,0,0,.186-0.068l1.613-2.649a0.147,0.147,0,0,0-.031-0.187l-1.7-1.457,0.083-.36a7.734,7.734,0,0,0-.039-3.64l-0.09-.363,1.7-1.495a0.146,0.146,0,0,0,.028-0.186L19.947,4.961A0.159,0.159,0,0,0,19.76,4.9l-2.252.715-0.29-.238a8.666,8.666,0,0,0-3.068-1.625l-0.375-.111L13.263,1.384a0.157,0.157,0,0,0-.155-0.119H9.884a0.157,0.157,0,0,0-.154.118L9.2,3.693l-0.362.115a8.661,8.661,0,0,0-3,1.664l-0.288.245-2.4-.734a0.167,0.167,0,0,0-.187.068L1.356,7.7a0.147,0.147,0,0,0,.031.187L3.258,9.5l-0.08.358a7.855,7.855,0,0,0-.184,1.685,7.769,7.769,0,0,0,.189,1.7l0.08,0.354L1.429,15.2a0.147,0.147,0,0,0-.028.188l1.645,2.631a0.16,0.16,0,0,0,.187.066Z"/>
</svg>
