<svg xmlns="http://www.w3.org/2000/svg" width="28" height="27" viewBox="0 0 28 27">
  <metadata><?xpacket begin="﻿" id="W5M0MpCehiHzreSzNTczkc9d"?>
<x:xmpmeta xmlns:x="adobe:ns:meta/" x:xmptk="Adobe XMP Core 5.6-c138 79.159824, 2016/09/14-01:09:01        ">
   <rdf:RDF xmlns:rdf="http://www.w3.org/1999/02/22-rdf-syntax-ns#">
      <rdf:Description rdf:about=""/>
   </rdf:RDF>
</x:xmpmeta>





















<?xpacket end="w"?></metadata>
<defs>
    <style>
      .cls-1 {
        fill: #d8dde6;
        fill-rule: evenodd;
      }
    </style>
  </defs>
  <path class="cls-1" d="M3.933,11.665a3.81,3.81,0,0,1-3.8-3.808V3.939A3.809,3.809,0,0,1,3.933.131h3.91a3.809,3.809,0,0,1,3.8,3.808V7.857a3.809,3.809,0,0,1-3.8,3.808H3.933Zm3.91-11.4a3.678,3.678,0,0,1,3.671,3.677V7.857a3.678,3.678,0,0,1-3.671,3.677H3.933A3.678,3.678,0,0,1,.262,7.857V3.939A3.678,3.678,0,0,1,3.933.262h3.91m0-.262H3.933A3.948,3.948,0,0,0,0,3.939V7.857A3.948,3.948,0,0,0,3.933,11.8h3.91a3.948,3.948,0,0,0,3.933-3.939V3.939A3.948,3.948,0,0,0,7.843,0h0ZM20.157,11.665a3.81,3.81,0,0,1-3.8-3.808V3.939a3.81,3.81,0,0,1,3.8-3.808h3.91a3.809,3.809,0,0,1,3.8,3.808V7.857a3.809,3.809,0,0,1-3.8,3.808h-3.91Zm3.91-11.4a3.678,3.678,0,0,1,3.671,3.677V7.857a3.678,3.678,0,0,1-3.671,3.677h-3.91a3.678,3.678,0,0,1-3.671-3.677V3.939A3.678,3.678,0,0,1,20.157.262h3.91m0-.262h-3.91a3.948,3.948,0,0,0-3.933,3.94V7.857A3.948,3.948,0,0,0,20.157,11.8h3.91A3.948,3.948,0,0,0,28,7.857V3.939A3.948,3.948,0,0,0,24.067,0h0ZM3.933,26.869a3.809,3.809,0,0,1-3.8-3.808V19.143a3.809,3.809,0,0,1,3.8-3.808h3.91a3.809,3.809,0,0,1,3.8,3.808v3.917a3.809,3.809,0,0,1-3.8,3.808H3.933Zm3.91-11.4a3.678,3.678,0,0,1,3.671,3.677v3.917a3.678,3.678,0,0,1-3.671,3.677H3.933A3.678,3.678,0,0,1,.262,23.061V19.143a3.678,3.678,0,0,1,3.671-3.677h3.91m0-.262H3.933A3.948,3.948,0,0,0,0,19.143v3.917A3.948,3.948,0,0,0,3.933,27h3.91a3.948,3.948,0,0,0,3.933-3.939V19.143A3.948,3.948,0,0,0,7.843,15.2h0ZM20.157,26.869a3.81,3.81,0,0,1-3.8-3.808V19.143a3.81,3.81,0,0,1,3.8-3.808h3.91a3.809,3.809,0,0,1,3.8,3.808v3.917a3.809,3.809,0,0,1-3.8,3.808h-3.91Zm3.91-11.4a3.678,3.678,0,0,1,3.671,3.677v3.917a3.678,3.678,0,0,1-3.671,3.677h-3.91a3.678,3.678,0,0,1-3.671-3.677V19.143a3.678,3.678,0,0,1,3.671-3.677h3.91m0-.262h-3.91a3.948,3.948,0,0,0-3.933,3.94v3.917A3.948,3.948,0,0,0,20.157,27h3.91A3.948,3.948,0,0,0,28,23.061V19.143a3.948,3.948,0,0,0-3.933-3.94h0Z"/>
</svg>
