<svg xmlns="http://www.w3.org/2000/svg" width="18" height="18" viewBox="0 0 18 18">
  <metadata><?xpacket begin="﻿" id="W5M0MpCehiHzreSzNTczkc9d"?>
<x:xmpmeta xmlns:x="adobe:ns:meta/" x:xmptk="Adobe XMP Core 5.6-c138 79.159824, 2016/09/14-01:09:01        ">
   <rdf:RDF xmlns:rdf="http://www.w3.org/1999/02/22-rdf-syntax-ns#">
      <rdf:Description rdf:about=""/>
   </rdf:RDF>
</x:xmpmeta>
                                                                                                    
                                                                                                    
                                                                                                    
                                                                                                    
                                                                                                    
                                                                                                    
                                                                                                    
                                                                                                    
                                                                                                    
                                                                                                    
                                                                                                    
                                                                                                    
                                                                                                    
                                                                                                    
                                                                                                    
                                                                                                    
                                                                                                    
                                                                                                    
                                                                                                    
                                                                                                    
                           
<?xpacket end="w"?></metadata>
<defs>
    <style>
      .cls-1 {
        fill: #c9c9c9;
        fill-rule: evenodd;
      }
    </style>
  </defs>
  <path class="cls-1" d="M16.919,0.258A0.4,0.4,0,0,0,16.541.236l-5.231,2.4-5.231-2.4c-0.008,0-.017,0-0.025-0.008A0.382,0.382,0,0,0,6.008.213,0.363,0.363,0,0,0,5.96.2a0.385,0.385,0,0,0-.1,0,0.353,0.353,0,0,0-.048.009,0.371,0.371,0,0,0-.047.015c-0.008,0-.017,0-0.025.008l-5.4,2.476a0.379,0.379,0,0,0-.224.343V17.419A0.377,0.377,0,0,0,.3,17.74a0.4,0.4,0,0,0,.377.022l5.231-2.4,5.231,2.4c0.006,0,.013,0,0.019,0a0.359,0.359,0,0,0,.3,0c0.006,0,.013,0,0.019,0l5.4-2.477a0.379,0.379,0,0,0,.224-0.343V0.579A0.377,0.377,0,0,0,16.919.258ZM16.317,14.7L11.7,16.819V4.568H10.918V16.819l-4.589-2.1H5.493L0.9,16.819V3.3L5.519,1.179V13.433H6.3V1.179L10.9,3.287h0.824l4.6-2.108V14.7Z"/>
</svg>
