<svg xmlns="http://www.w3.org/2000/svg" width="27" height="22" viewBox="0 0 27 22">
  <metadata><?xpacket begin="﻿" id="W5M0MpCehiHzreSzNTczkc9d"?>
<x:xmpmeta xmlns:x="adobe:ns:meta/" x:xmptk="Adobe XMP Core 5.6-c138 79.159824, 2016/09/14-01:09:01        ">
   <rdf:RDF xmlns:rdf="http://www.w3.org/1999/02/22-rdf-syntax-ns#">
      <rdf:Description rdf:about=""/>
   </rdf:RDF>
</x:xmpmeta>
                                                                                                    
                                                                                                    
                                                                                                    
                                                                                                    
                                                                                                    
                                                                                                    
                                                                                                    
                                                                                                    
                                                                                                    
                                                                                                    
                                                                                                    
                                                                                                    
                                                                                                    
                                                                                                    
                                                                                                    
                                                                                                    
                                                                                                    
                                                                                                    
                                                                                                    
                                                                                                    
                           
<?xpacket end="w"?></metadata>
<defs>
    <style>
      .cls-1 {
        fill: #868686;
        fill-rule: evenodd;
      }
    </style>
  </defs>
  <path id="Shape_25_copy" data-name="Shape 25 copy" class="cls-1" d="M24.4,5.565H2.628A2.592,2.592,0,0,0,.01,8.125V16.2a2.592,2.592,0,0,0,2.618,2.56H6.079V17.641H2.628A1.463,1.463,0,0,1,1.151,16.2V8.125A1.463,1.463,0,0,1,2.628,6.68H24.4A1.463,1.463,0,0,1,25.88,8.125V16.2A1.463,1.463,0,0,1,24.4,17.641h-3v1.115h3A2.592,2.592,0,0,0,27.02,16.2V8.125A2.592,2.592,0,0,0,24.4,5.565Zm-1.829,4a1.247,1.247,0,1,1-1.247-1.22A1.233,1.233,0,0,1,22.574,9.563Zm-4.266,7.381H9.353a0.564,0.564,0,0,1-.57-0.558h0a0.564,0.564,0,0,1,.57-0.558h8.955a0.564,0.564,0,0,1,.57.558h0A0.564,0.564,0,0,1,18.308,16.944Zm3.019-3.338H6.079V12.49H21.327v1.115Zm-8.788,5.189H9.353a0.564,0.564,0,0,1-.57-0.558h0a0.564,0.564,0,0,1,.57-0.558h3.186a0.564,0.564,0,0,1,.57.558h0A0.564,0.564,0,0,1,12.539,18.795ZM6.649,5.565V2.824a1.719,1.719,0,0,1,1.736-1.7H19.1a1.719,1.719,0,0,1,1.736,1.7V5.565h1.14V2.824A2.848,2.848,0,0,0,19.1.011H8.385A2.848,2.848,0,0,0,5.509,2.824V5.565h1.14Zm14.183,6.912v6.729A1.719,1.719,0,0,1,19.1,20.9H8.385a1.719,1.719,0,0,1-1.736-1.7V12.477H5.509v6.729a2.848,2.848,0,0,0,2.876,2.813H19.1a2.848,2.848,0,0,0,2.876-2.813V12.477h-1.14Z"/>
</svg>
