<svg xmlns="http://www.w3.org/2000/svg" width="25" height="23" viewBox="0 0 25 23">
  <metadata><?xpacket begin="﻿" id="W5M0MpCehiHzreSzNTczkc9d"?>
<x:xmpmeta xmlns:x="adobe:ns:meta/" x:xmptk="Adobe XMP Core 5.6-c138 79.159824, 2016/09/14-01:09:01        ">
   <rdf:RDF xmlns:rdf="http://www.w3.org/1999/02/22-rdf-syntax-ns#">
      <rdf:Description rdf:about=""/>
   </rdf:RDF>
</x:xmpmeta>
                                                                                                    
                                                                                                    
                                                                                                    
                                                                                                    
                                                                                                    
                                                                                                    
                                                                                                    
                                                                                                    
                                                                                                    
                                                                                                    
                                                                                                    
                                                                                                    
                                                                                                    
                                                                                                    
                                                                                                    
                                                                                                    
                                                                                                    
                                                                                                    
                                                                                                    
                                                                                                    
                           
<?xpacket end="w"?></metadata>
<defs>
    <style>
      .cls-1 {
        fill: #4e89f7;
        fill-rule: evenodd;
      }
    </style>
  </defs>
  <path id="Shape_32_copy" data-name="Shape 32 copy" class="cls-1" d="M15.962,4.475a3.748,3.748,0,1,1-7.494.019A3.748,3.748,0,1,1,15.962,4.475Zm8.288,14.337a3.748,3.748,0,1,1-3.756-3.818A3.788,3.788,0,0,1,24.251,18.812Zm-16.5.042a3.788,3.788,0,0,1-3.737,3.837,3.829,3.829,0,0,1-.019-7.656A3.788,3.788,0,0,1,7.746,18.853Zm13.371,0.183L11.892,4.7l0.648-.435L21.766,18.6Zm-16.783.026-0.67-.4L11.881,4.284l0.67,0.4Zm16.171,0.155L4,19.259l0-.792,16.5-.042Z"/>
</svg>
