<svg xmlns="http://www.w3.org/2000/svg" width="23" height="21" viewBox="0 0 23 21">
  <metadata><?xpacket begin="﻿" id="W5M0MpCehiHzreSzNTczkc9d"?>
<x:xmpmeta xmlns:x="adobe:ns:meta/" x:xmptk="Adobe XMP Core 5.6-c138 79.159824, 2016/09/14-01:09:01        ">
   <rdf:RDF xmlns:rdf="http://www.w3.org/1999/02/22-rdf-syntax-ns#">
      <rdf:Description rdf:about=""/>
   </rdf:RDF>
</x:xmpmeta>
                                                                                                    
                                                                                                    
                                                                                                    
                                                                                                    
                                                                                                    
                                                                                                    
                                                                                                    
                                                                                                    
                                                                                                    
                                                                                                    
                                                                                                    
                                                                                                    
                                                                                                    
                                                                                                    
                                                                                                    
                                                                                                    
                                                                                                    
                                                                                                    
                                                                                                    
                                                                                                    
                           
<?xpacket end="w"?></metadata>
<defs>
    <style>
      .cls-1 {
        fill: #fff;
        fill-rule: evenodd;
      }
    </style>
  </defs>
  <path class="cls-1" d="M22.633,17.079L13.7,1.3a2.533,2.533,0,0,0-2.224-1.31h0A2.534,2.534,0,0,0,9.256,1.3L0.326,17.079a2.64,2.64,0,0,0,0,2.62,2.534,2.534,0,0,0,2.225,1.31H20.409a2.533,2.533,0,0,0,2.224-1.31A2.638,2.638,0,0,0,22.633,17.079ZM10.681,5.46h1.6v7.786h-1.6V5.46Zm0.8,11.469a1.222,1.222,0,1,1,1.2-1.222A1.21,1.21,0,0,1,11.48,16.929Z"/>
</svg>
